<svg width="1600" height="662" viewBox="0 0 1600 662" fill="none" xmlns="http://www.w3.org/2000/svg">
<path d="M1523.46 378.092H1558.82C1581.56 378.092 1600 396.538 1600 419.293C1600 442.05 1581.56 460.5 1558.82 460.5H1523.46V661.947H1441.1V263.637L1523.46 263.633V378.092Z" fill="#33D878"/>
<path d="M83.1745 507.02C105.768 507.02 124.218 524.773 125.348 547.098L125.44 550.72C126.194 565.603 138.493 577.439 153.556 577.439H467.925V661.942H153.556C91.3629 661.942 40.9457 611.498 40.9457 549.271C40.9457 525.936 59.8522 507.02 83.1745 507.02Z" fill="#33D878"/>
<path d="M782.909 263.633C805.652 263.633 824.093 282.083 824.093 304.839C824.093 327.595 805.652 346.045 782.909 346.045H680.966C627.514 346.045 584.183 389.4 584.183 442.881V501.72C584.184 544.696 619.002 579.534 661.955 579.534C704.907 579.533 739.726 544.695 739.727 501.72V435.853C739.727 403.953 765.574 378.092 797.457 378.092H863.302V263.637H945.665V661.942H863.302V460.5H822.09V501.72C822.089 590.208 750.395 661.941 661.955 661.942C573.514 661.942 501.816 590.208 501.814 501.72V442.881C501.815 343.887 582.026 263.633 680.966 263.633H782.909Z" fill="#33D878"/>
<path d="M1055.48 661.942H973.121V263.637H1055.48V661.942Z" fill="#33D878"/>
<path d="M1366.64 378.165C1389.38 378.167 1407.82 396.616 1407.82 419.371C1407.82 442.125 1389.38 460.571 1366.64 460.573H1208.65C1192.29 460.573 1179.03 473.842 1179.03 490.208V579.534H1407.82V661.942H1096.66V490.208C1096.66 428.329 1146.8 378.165 1208.65 378.165H1366.64Z" fill="#33D878"/>
<path d="M235.667 0C268.059 0.000618887 294.318 26.2736 294.318 58.6828V62.3964C395.32 88.0318 470.771 178.013 470.771 286.4V354.444H386.313V286.4C386.313 206.173 319.613 139.569 235.383 139.569C151.154 139.57 84.4576 206.174 84.4575 286.4C84.4575 358.326 138.07 419.288 209.861 431.135V366.181C209.861 342.846 228.767 323.929 252.089 323.929C275.411 323.93 294.318 342.846 294.318 366.181V433.231H428.043C451.364 433.231 470.271 452.148 470.271 475.482C470.271 498.817 451.364 517.733 428.043 517.734H235.383C106.259 517.733 0 415.027 0 286.4C7.49427e-05 177.811 75.7309 87.6968 177.016 62.2542V58.6828C177.016 26.2732 203.275 0 235.667 0Z" fill="#33D878"/>
<path d="M1366.64 263.633C1389.38 263.634 1407.82 282.083 1407.82 304.839C1407.82 327.595 1389.38 346.04 1366.64 346.041L1096.66 346.045V263.633H1366.64Z" fill="#33D878"/>
</svg>
