<svg width="16" height="16" viewBox="0 0 16 16" fill="none" xmlns="http://www.w3.org/2000/svg">
<path d="M13.1061 4.74254C13.4733 4.76714 13.7509 5.08497 13.7266 5.45217L13.3861 10.5628C13.3217 11.5274 13.2703 12.3163 13.1471 12.9352C13.0201 13.5731 12.801 14.1218 12.3392 14.5537C11.8775 14.9855 11.3157 15.1677 10.6706 15.2523C10.0444 15.3344 9.25362 15.3337 8.28646 15.3337H7.71354C6.74654 15.3337 5.95561 15.3349 5.32943 15.253C4.72479 15.1738 4.19319 15.0083 3.7487 14.6319L3.66081 14.5537C3.19918 14.1219 2.97999 13.5732 2.85286 12.9352C2.76038 12.4709 2.70795 11.9113 2.66081 11.2536L2.61393 10.5628L2.27344 5.45217C2.24908 5.08489 2.52723 4.76702 2.89453 4.74254C3.26163 4.71822 3.5788 4.99593 3.60352 5.36298L3.94466 10.4743L3.99154 11.1683C4.03755 11.8074 4.08343 12.2897 4.16016 12.6748C4.25871 13.1694 4.39276 13.4124 4.57161 13.5798L4.57227 13.5804C4.75116 13.7478 5.00247 13.8652 5.5026 13.9307C6.02217 13.9987 6.71018 14.0003 7.71354 14.0003H8.28646C9.28967 14.0003 9.97786 13.9988 10.4974 13.9307C10.9979 13.8651 11.2494 13.7472 11.4284 13.5798C11.6072 13.4125 11.7413 13.1696 11.8398 12.6748C11.9421 12.1612 11.9886 11.4751 12.0553 10.4743L12.3965 5.36298C12.4212 4.99583 12.7389 4.71806 13.1061 4.74254ZM6.08203 6.59605C6.44825 6.55952 6.77511 6.82687 6.81185 7.19306L7.18164 10.8968C7.21825 11.2632 6.95097 11.59 6.58464 11.6267C6.21848 11.6631 5.89221 11.3958 5.85547 11.0296L5.48503 7.32587C5.44852 6.9596 5.71574 6.63268 6.08203 6.59605ZM9.91797 6.59605C10.2843 6.63268 10.5515 6.9596 10.515 7.32587L10.1452 11.0296C10.1085 11.3959 9.7816 11.6632 9.41537 11.6267C9.04903 11.59 8.78176 11.2632 8.81836 10.8968L9.1888 7.19306C9.22555 6.82692 9.55181 6.55961 9.91797 6.59605ZM9.2181 0.667016C9.38738 0.667016 9.54864 0.665454 9.70052 0.689802C9.97446 0.733477 10.2352 0.840204 10.4603 1.0023C10.6574 1.14425 10.823 1.32507 10.9473 1.5329L10.9974 1.6234L10.998 1.6247C11.0684 1.76028 11.1175 1.91003 11.1725 2.07522L11.2441 2.29071L11.2474 2.30048L11.25 2.30959C11.3016 2.48118 11.4087 2.63122 11.554 2.73603C11.6811 2.82759 11.8315 2.88066 11.987 2.88902H14.2962C14.6643 2.88902 14.9628 3.1876 14.9629 3.55569C14.9629 3.92388 14.6644 4.22235 14.2962 4.22235L1.70378 4.22235C1.33559 4.22235 1.03711 3.92388 1.03711 3.55569C1.03723 3.1876 1.33566 2.88902 1.70378 2.88902H3.99674C4.15827 2.8836 4.31477 2.83056 4.44596 2.73603C4.5789 2.64013 4.67995 2.50606 4.73568 2.35191L4.75521 2.29267L4.75586 2.29071L4.82747 2.07522C4.88251 1.91011 4.93103 1.76023 5.0013 1.6247L5.00195 1.6234C5.13018 1.37738 5.31461 1.16447 5.53971 1.0023C5.76476 0.840263 6.02498 0.732837 6.29883 0.689151V0.689802C6.45079 0.665379 6.61187 0.667014 6.78125 0.667016L9.2181 0.667016ZM6.78125 2.00035C6.56368 2.00035 6.53111 2.0022 6.51042 2.00556L6.50846 2.00621C6.44013 2.01714 6.37519 2.04392 6.31901 2.08433C6.26314 2.1246 6.21626 2.17701 6.18425 2.23798L6.1849 2.23863C6.17383 2.26 6.16011 2.2941 6.09245 2.49709L6.02018 2.71259L5.99609 2.78681L5.99284 2.79592L5.98958 2.80439C5.97922 2.83309 5.96662 2.86086 5.95508 2.88902H10.0436C10.0199 2.83105 9.99785 2.77213 9.97917 2.71194V2.71259L9.90755 2.49709C9.83972 2.2936 9.82553 2.25999 9.81445 2.23863V2.23798C9.78243 2.17719 9.73675 2.1245 9.68099 2.08433C9.62473 2.04384 9.55934 2.01712 9.49089 2.00621L9.48958 2.00556C9.46888 2.00221 9.43544 2.00035 9.2181 2.00035H6.78125Z" fill="#D9E2E9"/>
</svg>
